<?xml version="1.0" encoding="utf-8"?>
<!-- Generator: Adobe Illustrator 16.0.3, SVG Export Plug-In . SVG Version: 6.00 Build 0)  -->
<!DOCTYPE svg PUBLIC "-//W3C//DTD SVG 1.1//EN" "http://www.w3.org/Graphics/SVG/1.1/DTD/svg11.dtd">
<svg version="1.1" id="圖層_1" xmlns="http://www.w3.org/2000/svg" xmlns:xlink="http://www.w3.org/1999/xlink" x="0px" y="0px"
	 width="125px" height="85px" viewBox="0 0 125 85" enable-background="new 0 0 125 85" xml:space="preserve">
<g>
	<g>
		<g>
			<path fill="#7FC7EF" d="M69.011,66.4c-1.874-0.276-3.472-1.753-4.016-3.266c-1.121-2.321-1.285-4.093-1.629-4.043
				c-0.192,0.004-0.591,1.779,0.316,4.596c0.486,1.349,1.407,3.116,3.375,4.099c0.591,0.31,1.261,0.486,1.953,0.56V66.4z"/>
			<path fill="#8CC5EB" d="M73.338,57.411h1.75c-0.264-0.447-0.55-0.854-0.836-1.202c-1.879-2.233-3.501-2.981-3.635-2.809
				c-0.218,0.246,1.076,1.42,2.472,3.623C73.174,57.146,73.259,57.275,73.338,57.411z"/>
		</g>
		<g>
			<g>
				<g>
					<path fill="#F08D1D" d="M56.849,45.096c-0.541,0.026,1.191-6.442-2.259-15.718c-1.764-4.496-5.048-9.629-10.487-12.934
						c-5.327-3.266-12.94-4.457-19.602-1.496c-3.311,1.426-6.19,3.706-7.934,6.503c-1.751,2.801-2.061,6.117-0.986,8.948
						c2.133,6.025,7.79,8.659,12.463,10.039c4.745,1.44,8.767,2.541,11.326,3.844c2.586,1.256,5.06,3.39,4.977,3.496
						c-0.121,0.181-2.755-1.646-5.359-2.576c-2.6-0.985-6.521-1.775-11.456-3.028c-2.446-0.675-5.204-1.507-7.853-3.231
						c-2.674-1.706-4.996-4.358-6.312-7.725c-1.391-3.373-1.049-7.707,1.053-11.07c2.071-3.378,5.348-5.942,9.061-7.551
						c7.529-3.333,16.035-1.902,21.866,1.84c5.954,3.788,9.295,9.473,10.944,14.319C59.478,38.787,56.971,45.275,56.849,45.096z"/>
				</g>
			</g>
		</g>
		<g>
			<g>
				<g>
					<path fill="#1695D4" d="M39.501,48.653c0.069,0.333-2.949,0.499-7.071,2.42c-2.015,0.979-4.235,2.64-5.452,5.267
						c-1.395,2.529-0.921,5.994,1.941,7.768c2.722,1.825,6.183,1.853,8.86,0.788c2.744-1.032,4.908-2.797,6.65-4.288
						c3.435-3.1,5.438-5.256,5.649-5.054c0.144,0.137-1.479,2.546-4.787,5.975c-1.693,1.656-3.856,3.634-6.913,4.897
						c-3.001,1.296-7.147,1.391-10.461-0.844c-1.638-1.098-2.912-2.795-3.297-4.717c-0.393-1.918,0.135-3.793,0.885-5.253
						c1.517-3.028,4.18-4.796,6.403-5.688C36.479,48.18,39.508,48.512,39.501,48.653z"/>
				</g>
			</g>
		</g>
		<g>
			<g>
				<g>
					<path fill="#42B049" d="M70.517,43.625c-0.227-0.108,1.833-3.562,7.04-7.022c2.61-1.64,5.878-3.612,10.203-4.093
						c2.21-0.187,4.516,0.322,6.595,1.526c2.095,1.193,3.796,3.394,4.297,5.949c1.067,5.211-2.287,10.029-6.224,11.754
						c-3.896,1.744-7.753,2.006-10.854,1.747c-6.234-0.631-9.679-2.46-9.613-2.599c0.084-0.349,3.713,1.009,9.684,1.271
						c2.954,0.086,6.562-0.331,10.023-1.979c3.332-1.553,6.005-5.64,5.139-9.809c-0.763-4.213-5.343-6.388-8.915-6.127
						c-3.77,0.31-7.056,2.05-9.626,3.491C73.063,40.785,70.729,43.796,70.517,43.625z"/>
				</g>
			</g>
		</g>
		<path fill="#313B8B" d="M59.888,74.984c0.036,0.132,0.192,0.272,0.078,0.345c-0.093,0.059-0.168-0.022-0.271-0.056
			c-0.185-0.065-0.247-0.181-0.421-0.27c-0.139-0.071-0.286-0.287-0.366-0.153c-0.115,0.172-0.173,0.13-0.268,0.229
			c-0.045,0.051-0.056,0.101-0.115,0.136c-0.186,0.106-0.284-0.218-0.344-0.424c-0.043-0.144,0.054-0.244,0-0.382
			c-0.048-0.119-0.161-0.132-0.213-0.25c-0.091-0.218,0.031-0.364,0.059-0.594c0.025-0.219,0.073-0.341,0.076-0.558
			c0.007-0.327-0.002-0.528-0.135-0.826c-0.119-0.268-0.328-0.333-0.46-0.596c-0.079-0.155-0.09-0.26-0.153-0.421
			c-0.111-0.282-0.134-0.467-0.308-0.71c-0.178-0.254-0.32-0.368-0.575-0.537c-0.216-0.143-0.362-0.18-0.597-0.289
			c-0.191-0.09-0.425-0.029-0.499-0.23c-0.037-0.098,0.069-0.19,0-0.268c-0.078-0.09-0.222,0.083-0.305,0
			c-0.073-0.071,0.017-0.183-0.059-0.249c-0.078-0.069-0.163,0.014-0.267,0c-0.301-0.042-0.431-0.207-0.672-0.386
			c-0.315-0.23-0.479-0.536-0.709-0.711c-0.212-0.248-0.351-0.369-0.388-0.67c-0.029-0.274,0.217-0.418,0.175-0.691
			c-0.026-0.186-0.088-0.285-0.19-0.44c-0.11-0.166-0.259-0.189-0.346-0.365c-0.085-0.171,0.052-0.342-0.078-0.479
			c-0.075-0.081-0.236-0.025-0.25-0.134c-0.011-0.102,0.113-0.12,0.155-0.211c0.186-0.395-0.35-0.597-0.462-1.018
			c-0.082-0.3,0.157-0.639-0.114-0.787c-0.102-0.055-0.201,0.015-0.29-0.057c-0.091-0.079,0.006-0.275-0.115-0.287
			c-0.111-0.014-0.097,0.248-0.191,0.208c-0.155-0.095-0.367-0.082-0.442-0.268c-0.047-0.116-0.016-0.199,0-0.324
			c0.028-0.231,0.191-0.328,0.212-0.56c0.016-0.179-0.212-0.362-0.059-0.459c0.155-0.134,0.096-0.191,0.155-0.423
			c0.135-0.402,0.253-0.631,0.326-1.057c0.033-0.191,0.25-0.227,0.058-0.497c-0.058-0.136-0.058-0.385-0.058-0.385
			c0.173-0.056,0.166,0.249,0.327,0.249c0.271,0,0.004-0.424-0.039-0.69c-0.033-0.207,0.039-0.287-0.135-0.518
			c-0.055-0.135,0.001-0.362,0-0.598c-0.005-0.544-0.039-0.844-0.039-1.397c0-0.347,0.281-0.473,0.364-0.809
			c0.072-0.285-0.051-0.484,0.079-0.747c0.157-0.33,0.62-0.243,0.727-0.594c0.028-0.097,0.018-0.154,0.038-0.251
			c0.074-0.357,0.228-0.526,0.365-0.863c0.149-0.363,0.152-0.609,0.366-0.941c0.184-0.289,0.397-0.369,0.595-0.654
			c0.209-0.301,0.229-0.529,0.421-0.843c0.186-0.301,0.377-0.415,0.539-0.73c0.185-0.367,0.152-0.626,0.287-1.016
			c0.172-0.502,0.257-0.799,0.534-1.248c0.178-0.279,0.346-0.391,0.521-0.67c0.2-0.325,0.263-0.537,0.421-0.886
			c0.148-0.326,0.133-0.569,0.364-0.843c0.155-0.184,0.307-0.221,0.479-0.386c0.079-0.07,0.114-0.119,0.192-0.19
			c0.236-0.211,0.518-0.156,0.691-0.422c0.091-0.141,0.057-0.264,0.152-0.402c0.106-0.155,0.273-0.213,0.364-0.309
			c0.25-0.326,0.307-0.651,0.327-1.016c0.018-0.153,0.152-0.153,0.229-0.269c0.118-0.193,0.135-0.345,0.176-0.402
			c0.054-0.308,0.187-0.52,0.266-0.845c0.04-0.153,0.288-0.345,0.307-0.403c0.345-0.327,0.52-0.402,0.69-0.69
			c0.212-0.308,0.576-0.287,0.943-0.384c0.347-0.155,0.563-0.254,0.94-0.366c0.36-0.104,0.612-0.014,0.941-0.19
			c0.242-0.133,0.381-0.236,0.536-0.46c0.114-0.162,0.114-0.291,0.212-0.463c0.162-0.281,0.287-0.403,0.517-0.653
			c0.135-0.076,0.287-0.2,0.499-0.229c0.103-0.013,0.163,0,0.27,0c0.164,0,0.272-0.069,0.423,0c0.11,0.052,0.154,0.114,0.23,0.212
			c0.072,0.094,0.1,0.16,0.154,0.268c0.052,0.109,0.035,0.199,0.115,0.289c0.05,0.056,0.082,0.093,0.152,0.115
			c0.071,0.022,0.117,0,0.192,0c0.081,0,0.146-0.049,0.21,0c0.086,0.061-0.04,0.173,0,0.269c0.047,0.107,0.138,0.122,0.23,0.194
			c0.101,0.07,0.15,0.134,0.269,0.171c0.116,0.035,0.19,0.034,0.308,0.019c0.068-0.007,0.103-0.043,0.172-0.038
			c0.093,0.006,0.136,0.06,0.212,0.115c0.086,0.062,0.097,0.145,0.192,0.193c0.141,0.069,0.242,0,0.4,0c0.137,0,0.213-0.017,0.347,0
			c0.076,0.008,0.144-0.021,0.19,0.037c0.04,0.048,0.04,0.092,0.04,0.153c0,0.088-0.065,0.125-0.079,0.211
			c-0.009,0.115,0.007,0.181,0.039,0.29c0.052,0.163,0.104,0.275,0.249,0.364c0.082,0.048,0.136,0.072,0.231,0.076
			c0.084,0.003,0.131-0.058,0.211-0.038c0.072,0.017,0.128,0.044,0.154,0.114c0.016,0.042,0.018,0.073,0,0.115
			c-0.024,0.06-0.077,0.066-0.133,0.096c-0.064,0.033-0.107,0.029-0.174,0.057c-0.138,0.061-0.207,0.121-0.327,0.212
			c-0.194,0.146-0.294,0.242-0.46,0.421c-0.242,0.268-0.385,0.431-0.519,0.77c-0.062,0.151-0.089,0.24-0.117,0.402
			c-0.037,0.244-0.02,0.387,0,0.634c0.023,0.256,0.056,0.401,0.117,0.652c0.068,0.282,0.088,0.455,0.229,0.71
			c0.095,0.162,0.228,0.206,0.29,0.383c0.056,0.17,0.032,0.282,0.019,0.465c-0.014,0.181-0.064,0.275-0.098,0.458
			c-0.026,0.169,0.019,0.284-0.057,0.441c-0.054,0.115-0.135,0.146-0.21,0.251c-0.16,0.216-0.225,0.361-0.327,0.612
			c-0.121,0.301-0.147,0.487-0.211,0.806c-0.048,0.238-0.009,0.391-0.096,0.614c-0.106,0.27-0.267,0.363-0.44,0.595
			c-0.172,0.226-0.306,0.385-0.44,0.577c-0.118,0.171-0.098,0.434-0.173,0.71c-0.042,0.149-0.076,0.232-0.117,0.383
			c-0.056,0.193-0.144,0.297-0.133,0.498c0.008,0.185,0.171,0.257,0.171,0.439c0,0.251-0.235,0.32-0.307,0.56
			c-0.091,0.309,0.019,0.503,0,0.826c-0.014,0.216,0.005,0.346-0.059,0.555c-0.051,0.166-0.19,0.213-0.19,0.403
			c0.019,0.403-0.135,0.557-0.191,1.075c0,0.423-0.121,0.248-0.155,0.423c-0.034,0.19,0.018,0.303,0,0.497
			c-0.021,0.26-0.094,0.398-0.134,0.654c-0.072,0.467-0.025,0.74-0.095,1.209c-0.056,0.378-0.111,0.587-0.192,0.958
			c-0.049,0.227-0.058,0.403-0.133,0.576c-0.037,0.19,0.115,0.174-0.251,0.365c-0.173,0.095-0.189,0.47-0.249,0.785
			c-0.019,0.097-0.038,0.097-0.038,0.25c-0.078,0.479-0.138,0.388-0.096,0.635c0.019,0.116,0.096,0.168,0.096,0.287
			c0,0.271-0.442,0.23-0.499,0.48c-0.076,0.462-0.257,0.66-0.441,1.075c-0.215,0.479-0.203,0.856-0.596,1.207
			c-0.193,0.175-0.441,0.121-0.575,0.348c-0.098,0.163-0.062,0.292-0.097,0.48c-0.034,0.191-0.018,0.312-0.075,0.497
			c-0.077,0.24-0.125,0.408-0.326,0.56c-0.161,0.118-0.136,0.171-0.48,0.171c-0.152,0-0.304,0.104-0.46,0.229
			c-0.224,0.182-0.287,0.353-0.404,0.615c-0.092,0.206-0.096,0.342-0.174,0.555c-0.073,0.213-0.121,0.33-0.21,0.538
			c-0.113,0.265-0.228,0.393-0.308,0.671c-0.062,0.22-0.043,0.355-0.094,0.577c-0.09,0.378-0.245,0.56-0.327,0.939
			c-0.068,0.318-0.089,0.502-0.095,0.826c-0.007,0.27,0.056,0.423,0.037,0.691c-0.017,0.259-0.14,0.392-0.133,0.651
			c0.007,0.266,0.267,0.442,0.19,0.653c-0.095,0.402,0,0.826,0,1.093c0,0.174-0.283,0.05-0.401,0.174
			c-0.125,0.131-0.153,0.259-0.153,0.44C59.754,74.76,59.842,74.832,59.888,74.984z"/>
		<g>
			<path d="M69.272,57.575h9.014v3.296h-5.584v3.232h5.584v3.248h-5.584v7.986h-3.43V57.575z"/>
			<path d="M80.645,57.575h4.095c2.638,0,4.599,0.321,5.882,0.96c1.282,0.64,2.337,1.68,3.169,3.122
				c0.831,1.439,1.246,3.123,1.246,5.046c0,1.369-0.231,2.627-0.695,3.773c-0.466,1.148-1.108,2.1-1.926,2.856
				s-1.704,1.279-2.658,1.569c-0.952,0.289-2.604,0.435-4.957,0.435h-4.155V57.575z M84.072,60.84v11.201h1.604
				c1.579,0,2.725-0.176,3.438-0.531c0.711-0.353,1.293-0.95,1.746-1.787c0.452-0.838,0.678-1.87,0.678-3.095
				c0-1.885-0.538-3.347-1.616-4.386c-0.972-0.937-2.53-1.402-4.678-1.402H84.072z"/>
			<path d="M102.051,57.575h3.52l6.962,17.763h-3.591l-1.421-3.66h-7.395l-1.482,3.66h-3.591L102.051,57.575z M103.827,62.284
				l-2.43,6.098h4.846L103.827,62.284z"/>
		</g>
		<g>
			<path fill="none" d="M62.121,14.493c6.41,5.717,8.93,13.43,5.88,19.661"/>
			<g>
				<path d="M68.001,34.154c-0.236,0.013,2.224-4.818,0.006-10.592c-2.067-5.679-6.138-8.881-5.886-9.069
					c0-0.138,4.415,2.864,6.602,8.816C71.047,29.41,68.112,34.433,68.001,34.154z"/>
			</g>
		</g>
		<g>
			<path fill="none" d="M70.832,35.661c1.188-3.629,8.436-9.446,13.159-8.895"/>
			<g>
				<path d="M83.991,26.767c0.015-0.005-3.85,0.092-7.556,2.948c-3.847,2.576-5.625,5.939-5.604,5.946
					c-0.307-0.071,1.375-3.735,5.313-6.36C79.932,26.366,84.091,26.469,83.991,26.767z"/>
			</g>
		</g>
	</g>
</g>
</svg>
